<svg  viewBox="0 0 24 24" fill="none" xmlns="http://www.w3.org/2000/svg">
<g clip-path="url(#clip0_1_7)">
<path d="M1.65545 20.69H22.3446C22.5731 20.69 22.7584 20.8753 22.7584 21.1038V22.3452H1.24164V21.1038C1.24164 20.8753 1.42694 20.69 1.65545 20.69Z" fill="#919D9E"/>
<path d="M1.24164 5.38H22.7584V7.44905C22.7584 7.67756 22.5731 7.86267 22.3446 7.86267H1.65545C1.42694 7.86267 1.24164 7.67756 1.24164 7.44905V5.38Z" fill="#A5B4B4"/>
<path d="M1.65545 7.86267H4.13812C4.36663 7.86267 4.55192 8.04797 4.55192 8.27648V9.1041C4.55192 9.33261 4.36663 9.51791 4.13812 9.51791H1.65545C1.42694 9.51791 1.24164 9.33261 1.24164 9.1041V8.27648C1.24164 8.04797 1.42694 7.86267 1.65545 7.86267Z" fill="#919D9E"/>
<path d="M19.8619 7.86267H22.3446C22.5731 7.86267 22.7584 8.04797 22.7584 8.27648V9.1041C22.7584 9.33261 22.5731 9.51791 22.3446 9.51791H19.8619C19.6334 9.51791 19.4481 9.33261 19.4481 9.1041V8.27648C19.4481 8.04797 19.6334 7.86267 19.8619 7.86267Z" fill="#919D9E"/>
<path d="M13.6551 7.86267H16.1378C16.3663 7.86267 16.5516 8.04797 16.5516 8.27648V9.1041C16.5516 9.33261 16.3663 9.51791 16.1378 9.51791H13.6551C13.4266 9.51791 13.2413 9.33261 13.2413 9.1041V8.27648C13.2413 8.04797 13.4266 7.86267 13.6551 7.86267Z" fill="#919D9E"/>
<path d="M7.86217 7.86267H10.3448C10.5734 7.86267 10.7587 8.04797 10.7587 8.27648V9.1041C10.7587 9.33261 10.5734 9.51791 10.3448 9.51791H7.86217C7.63366 9.51791 7.44836 9.33261 7.44836 9.1041V8.27648C7.44836 8.04797 7.63366 7.86267 7.86217 7.86267Z" fill="#919D9E"/>
<path d="M0.413992 22.3452H23.586C23.8145 22.3452 23.9998 22.5303 23.9998 22.7588V23.5865C23.9998 23.815 23.8145 24.0003 23.586 24.0003H0.413992C0.185482 24.0003 0.000366211 23.815 0.000366211 23.5865V22.7588C0.000366211 22.5303 0.185482 22.3452 0.413992 22.3452Z" fill="#C9CED1"/>
<path d="M23.8169 4.77403L12.662 0.133328C12.2385 -0.0435476 11.7615 -0.0435476 11.338 0.133328L0.183097 4.77403C0.0496165 4.83647 -0.0232578 4.98258 0.0067708 5.12686C0.0367994 5.27133 0.162041 5.37607 0.309437 5.38009H23.6905C23.8379 5.37607 23.9632 5.27133 23.9932 5.12686C24.0234 4.98258 23.9504 4.83647 23.8169 4.77403Z" fill="#C9CED1"/>
<path d="M7.01385 3.72493L11.9739 1.66174H12.0257L16.9861 3.72493H7.01385Z" fill="#A5B4B4"/>
<path d="M4.13806 20.69C4.13806 11.1729 3.72426 9.51788 3.72426 9.51788H2.0692C2.0692 9.51788 1.6554 11.1729 1.6554 20.69H4.13806Z" fill="#A5B4B4"/>
<path d="M10.3449 20.69C10.3449 11.1729 9.93104 9.51788 9.93104 9.51788H8.27599C8.27599 9.51788 7.86218 11.1729 7.86218 20.69H10.3449Z" fill="#A5B4B4"/>
<path d="M16.1378 20.69C16.1378 11.1729 15.724 9.51788 15.724 9.51788H14.0689C14.0689 9.51788 13.6551 11.1729 13.6551 20.69H16.1378Z" fill="#A5B4B4"/>
<path d="M22.3445 20.69C22.3445 11.1729 21.9307 9.51788 21.9307 9.51788H20.2757C20.2757 9.51788 19.8619 11.1729 19.8619 20.69H22.3445Z" fill="#A5B4B4"/>
</g>
<defs>
<clipPath id="clip0_1_7">
<rect width="24" height="24" fill="white"/>
</clipPath>
</defs>
</svg>
